<svg xmlns="http://www.w3.org/2000/svg" viewBox="0 0 1600 900" role="img" aria-label="NEW AUTO PLUS branded auto service hero image"><defs><linearGradient id="g" x1="0" x2="1"><stop stop-color="#11151a"/><stop offset=".55" stop-color="#161a20"/><stop offset="1" stop-color="#222832"/></linearGradient><filter id="s"><feDropShadow dx="0" dy="24" stdDeviation="18" flood-color="#000" flood-opacity=".55"/></filter><linearGradient id="shine" x1="0" x2="1"><stop stop-color="#ff7a1a"/><stop offset="1" stop-color="#d84b16"/></linearGradient></defs><rect fill="url(#g)" width="1600" height="900"/><path d="M0 0h1600v900H0z" fill="#06080b" opacity=".28"/><path d="M760 610h620q55 0 82-45l42-70q16-26-14-38l-82-33q-43-17-90-17H940q-65 0-105 48l-95 112q-24 28 20 43z" fill="#0b0d10" filter="url(#s)"/><circle cx="910" cy="636" r="72" fill="#050607"/><circle cx="1325" cy="636" r="72" fill="#050607"/><circle cx="910" cy="636" r="38" fill="#222832"/><circle cx="1325" cy="636" r="38" fill="#222832"/><path d="M880 470h370q55 0 98 23l92 48H800z" fill="#303946"/><path d="M830 462h510" stroke="#ff7a1a" stroke-width="6"/><text x="845" y="305" font-family="Arial Black,Arial,sans-serif" font-size="136" font-weight="900" fill="url(#shine)">&#1040;&#1042;&#1058;&#1054;</text><text x="845" y="430" font-family="Arial Black,Arial,sans-serif" font-size="122" font-weight="900" fill="#f7f7f2">&#1055;&#1051;&#1070;&#1057;</text><path d="M1040 660c140-24 265-22 410 0" fill="none" stroke="#ff7a1a" stroke-width="5" opacity=".75"/><rect x="670" y="120" width="780" height="580" fill="none" stroke="#fff" stroke-opacity=".04" stroke-width="2"/></svg>
